<?xml version="1.0" encoding="UTF-8"?>
<!DOCTYPE svg PUBLIC "-//W3C//DTD SVG 1.1//EN" "http://www.w3.org/Graphics/SVG/1.1/DTD/svg11.dtd">
<!-- Creator: CorelDRAW X7 -->
<svg xmlns="http://www.w3.org/2000/svg" xml:space="preserve" width="0.612843in" height="0.210008in" version="1.1" style="shape-rendering:geometricPrecision; text-rendering:geometricPrecision; image-rendering:optimizeQuality; fill-rule:evenodd; clip-rule:evenodd"
viewBox="0 0 323 111"
 xmlns:xlink="http://www.w3.org/1999/xlink">
 <defs>
  <style type="text/css">
   <![CDATA[
    .fil1 {fill:#2B2A29}
    .fil0 {fill:#2B2A29;fill-rule:nonzero}
   ]]>
  </style>
 </defs>
 <g id="Layer_x0020_1">
  <metadata id="CorelCorpID_0Corel-Layer"/>
  <path class="fil0" d="M82 106l-3 1c-1,1 -2,1 -3,1 0,0 -1,-1 -1,-2l-2 -4c-1,-1 -1,-1 -1,-2 0,0 0,-1 0,-1 0,0 1,-1 1,-1 0,0 1,0 2,-1l0 0 2 -1 5 10zm-4 -1l0 0 1 0 -3 -6 -1 0c0,0 0,0 0,1 -1,0 0,0 0,0l2 5c0,0 0,1 1,1 0,0 0,0 0,-1zm4 -13l0 0 6 9 -4 4 -1 -2 2 -2 -1 -2 -2 2 -1 -2 2 -2 -2 -2 -2 2 -1 -2 4 -3zm4 -3l0 0 6 6 1 -1 1 2 -4 4 -1 -2 1 -1 -6 -6 2 -2zm3 -4l0 0 8 8 -2 2 -8 -8 2 -2zm5 -8l0 0 9 6 -2 3 -3 -2c0,0 0,0 -1,0 0,0 -1,-1 -1,-1 0,0 1,1 1,1 0,0 1,1 1,1l3 2 -2 3 -9 -6 1 -2 3 3c1,0 2,1 2,1 1,1 2,1 3,2 -1,-1 -2,-2 -2,-2 -1,0 -1,-1 -1,-1l-4 -4 0 -1 5 2c1,0 2,1 2,1 1,0 1,0 2,1 -1,-1 -1,-1 -2,-2 -1,0 -2,-1 -2,-1l-4 -2 1 -2zm2 -4l0 0 10 4 -1 2 -10 -4 1 -2zm1 -6l0 0 11 3 -1 3 -8 -3 -1 3 -2 -1 1 -5zm2 -10l0 0 10 1 0 6 -2 -1 0 -3 -2 0 0 3 -2 0 0 -3 -3 0 0 3 -2 0 1 -6zm-1 -5l0 0 9 0 0 -2 2 0 0 6 -2 0 0 -2 -8 1 -1 -3zm3 -6l0 0 1 1 3 -1c0,0 0,0 0,0 1,0 1,-1 1,-1 0,0 0,0 -1,0 0,0 0,1 0,1l-4 0zm-4 -2l0 0 11 -1 0 4 -10 4 0 -3 2 0 -1 -2 -2 0 0 -2zm-2 -5l0 0 10 -6 0 3 -3 2c-1,0 -1,0 -2,1 0,0 -1,0 -2,1 1,-1 2,-1 3,-1 0,0 1,0 1,0l4 -2 1 3 -11 2 -1 -3zm-2 -4l0 0 10 -5 1 2 -10 5 -1 -2zm-4 -7l0 0 9 -6 2 3c0,1 1,1 1,2 0,1 -1,1 -1,2l-1 0 0 0c0,0 -1,1 -1,1 -1,0 -1,-1 -1,-1 0,1 0,1 0,1 -1,1 -1,1 -1,2l-2 1c-1,0 -1,0 -1,0 0,1 0,1 0,1l-2 -2c0,0 1,0 1,-1 0,0 0,0 0,0l2 -1c0,-1 1,-1 1,-1 0,0 0,-1 -1,-1l-4 2 -1 -2zm7 -1l0 0c0,0 0,0 1,0 0,0 0,0 0,0l1 0c0,0 0,-1 0,-1 0,0 0,0 0,-1l0 0 -2 2zm-6 -7l0 0 0 0c0,0 0,1 1,1 0,0 0,0 0,0 1,0 1,0 1,0l1 -1c0,0 0,0 0,-1 0,0 0,0 -1,0l0 -1 -2 2zm-6 3l0 0 8 -8 2 3c1,1 1,1 1,2 0,1 0,1 -1,2l0 1c-1,0 -2,1 -2,1 -1,0 -2,-1 -2,-1l-1 -1 -3 3 -2 -2zm-5 -4l0 0 0 -1c0,0 -1,0 -1,0 0,0 -1,0 -1,0 -1,-1 -1,-1 -1,-2 0,-1 0,-1 1,-2l2 -4c1,-1 2,-2 2,-2 1,0 2,0 3,1 1,0 1,1 1,2 1,1 0,1 0,2l-1 1 -2 -2 1 0c0,-1 0,-1 0,-1 0,0 0,-1 0,-1 0,0 -1,0 -1,0 0,0 0,0 0,1l-3 4c0,1 0,1 0,1 0,0 0,0 0,1 0,0 0,0 0,0 1,0 1,-1 1,-1l1 -1 -1 0 1 -2 3 2 -3 5 -2 -1zm-11 -6l0 0 4 -10 2 1 0 5c0,0 0,1 0,1 0,1 -1,1 -1,2 1,-1 1,-1 1,-2 0,0 0,-1 0,-2l2 -3 2 0 -4 11 -2 -1 0 -5c0,-1 0,-1 0,-2 0,0 0,-1 1,-1 -1,0 -1,1 -1,2 0,0 -1,1 -1,2l-1 3 -2 -1zm-4 -1l0 0 3 -11 2 1 -2 11 -3 -1zm-7 -5l0 0 3 1 0 1c0,0 0,0 0,0 0,1 0,1 0,1 1,0 1,0 1,0 0,-1 0,-1 0,-1 0,0 0,0 0,-1 0,0 0,0 0,0 -1,-1 -1,-1 -1,-1 -1,-1 -1,-1 -1,-2 -1,0 -1,0 -1,-1 0,0 0,-1 0,-1 0,-1 1,-2 1,-2 1,-1 2,-1 3,-1 1,1 1,1 2,1 0,1 0,2 0,3l0 1 -2 -1 0 -1c0,0 0,0 0,0 0,0 0,-1 -1,-1 0,0 0,0 0,1 0,0 -1,0 -1,0 0,0 1,1 2,2l0 0 0 1c1,0 1,1 1,1 1,1 1,1 1,1 0,1 0,1 0,1 0,1 -1,2 -1,2 -1,1 -2,1 -3,1 -1,0 -2,-1 -2,-1 -1,-1 -1,-2 -1,-3l0 -1zm-8 1l0 0 3 -1 0 1c0,1 0,1 0,1 0,0 0,0 1,0 0,0 0,0 0,0 0,0 1,0 0,0 0,-1 0,-1 0,-1 0,0 0,-1 0,-1 0,0 -1,0 -1,0 -1,-1 -1,-1 -2,-2 0,0 0,0 0,-1 0,0 0,-1 -1,-1 0,-1 1,-2 1,-2 1,-1 2,-1 3,-1 1,0 1,0 2,1 0,0 1,1 1,2l0 1 -3 0 0 -1c0,0 0,-1 0,-1 0,0 0,0 0,0 -1,0 -1,0 -1,0 0,0 0,1 0,1 0,0 0,1 2,2l0 0 0 0c1,1 1,1 1,2 1,0 1,0 1,0 0,1 0,1 0,1 0,1 0,2 -1,3 0,0 -1,0 -2,0 -1,1 -2,0 -3,0 0,-1 0,-2 -1,-3l0 0zm-5 5l0 0 -2 -11 5 -1 0 2 -3 0 1 3 2 -1 1 2 -3 1 1 2 3 -1 0 3 -5 1zm-3 -3l0 0c1,1 1,2 0,2 0,1 -1,2 -2,2 0,1 -1,1 -2,0 -1,0 -1,-1 -2,-2l-1 -4c-1,-1 -1,-2 0,-3 0,0 0,-1 1,-1 1,-1 2,-1 3,-1 1,1 1,1 2,3l0 0 -2 1 -1 -1c0,0 0,0 0,-1 0,0 -1,0 -1,0 0,1 0,1 0,1 0,0 0,0 0,1l2 5c0,0 0,0 0,0 0,0 1,0 1,0 0,0 0,0 0,0 0,0 0,-1 0,-1l0 -1 2 -1 0 1zm-15 2l0 0c0,-1 -1,-2 0,-2 0,-1 0,-2 1,-2 1,-1 2,-1 3,-1 1,0 1,1 2,2l2 4c0,1 1,2 0,2 0,1 0,2 -1,3 -1,0 -2,0 -3,0 0,0 -1,-1 -2,-2l-2 -4zm2 -1l0 0 3 4c0,1 0,1 0,1 0,0 1,0 1,0 0,0 0,-1 0,-1 0,0 0,0 0,0l-3 -5c0,-1 0,-1 0,-1 0,0 -1,0 -1,0 0,0 0,1 0,1 0,0 0,0 0,1zm-4 13l0 0 -7 -9 3 -2c1,-1 1,-1 2,-1 0,0 1,0 1,1l1 0 0 1c0,0 1,0 1,1 0,0 0,1 -1,1 1,0 1,0 2,0 0,0 0,0 1,1l1 2c0,0 1,0 1,0 0,0 0,0 0,0l-2 2c0,0 0,0 0,0 0,0 0,0 -1,-1l-1 -1c0,-1 -1,-1 -1,-1 0,0 0,0 -1,0l3 4 -2 2zm-2 -7l0 0c0,0 1,-1 1,-1 0,0 0,0 -1,-1l0 0c0,0 0,0 -1,0 0,0 0,0 -1,0l0 0 2 2zm-6 6l0 0c0,0 0,0 0,0 1,0 1,0 1,0 0,0 0,-1 0,-1 0,0 0,0 0,-1l-1 0c0,0 0,0 -1,0 0,0 0,0 0,0l-1 1 2 1zm3 6l0 0 -8 -7 3 -3c0,0 1,-1 2,-1 0,0 1,0 2,1l0 1c1,0 1,1 1,2 1,0 0,1 0,2l-1 1 3 2 -2 2zm-14 5l0 0 1 -3c0,-1 1,-2 2,-2 0,0 1,0 2,1l4 2c1,0 1,0 2,1 0,0 0,0 0,1 0,0 0,1 0,1 0,0 0,1 -1,2l0 0 -1 2 -9 -5zm2 -2l0 0 0 1 7 3 0 0c0,-1 0,-1 0,-1 0,0 0,-1 -1,-1l-4 -2c-1,0 -1,0 -1,0 0,0 0,0 -1,0zm5 15l0 0 -11 -3 1 -3 5 0c0,0 1,0 1,0 1,0 1,0 2,0 -1,0 -1,0 -2,0 0,0 -1,0 -2,0l-3 -1 0 -3 11 3 -1 3 -5 0c0,0 -1,0 -2,0 0,0 -1,0 -1,0 1,0 1,0 2,0 1,1 1,1 2,1l3 1 0 2zm-5 5l0 0 0 -2 -3 0c0,0 0,0 -1,0 0,0 0,0 -1,0 0,0 1,0 1,1 0,0 1,0 1,0l3 1zm4 3l0 0 -11 -3 1 -4 11 0 -1 2 -2 0 0 2 2 1 0 2zm-4 8l0 0 0 -3 1 0c0,0 1,0 1,0 0,0 0,0 0,-1 0,0 0,0 0,0 0,0 -1,0 -1,0 0,0 0,0 0,0 -1,0 -1,0 -1,0 0,1 0,1 0,1 -1,1 -1,2 -2,2 0,0 0,0 -1,1 0,0 0,0 -1,0 -1,0 -2,0 -2,-1 -1,0 -1,-1 -1,-2 0,-1 0,-2 1,-2 0,-1 1,-1 2,-1l0 0 1 2 -1 0c-1,0 -1,0 -1,0 0,0 0,1 0,1 0,0 0,0 0,0 0,0 1,1 1,1 0,-1 1,-1 2,-2l0 0 0 -1c0,-1 1,-1 1,-1 0,-1 1,-1 1,-1 0,0 1,0 1,0 1,0 2,0 2,1 1,0 1,1 1,2 0,1 0,2 -1,3 0,0 -1,1 -2,1l-1 0zm6 7l0 0 -4 2 -6 4 -1 -3 2 -1c1,0 1,0 1,-1 0,0 1,0 1,0 -1,0 -1,0 -2,0l-2 1 -1 -3 7 0 4 -1 1 2zm2 6l0 0 -8 4 1 1 -2 1 -2 -5 1 -1 1 1 8 -3 1 2zm2 4l0 0 -9 6 -1 -2 9 -6 1 2zm3 5l0 0 -8 7 -2 -2 7 -6 -1 -2 2 -1 2 4zm1 7l0 0 -1 -1 -2 2c0,1 0,1 0,1 -1,0 -1,0 -1,1 0,0 0,-1 1,-1 0,0 0,0 0,0l3 -2zm5 -1l0 0 -9 6 -3 -2 7 -9 2 2 -2 1 2 2 1 -2 2 2zm-3 12l0 0 5 -7c0,0 0,0 0,-1 0,0 0,0 0,0 0,0 -1,0 -1,0 0,0 0,0 0,0l-5 7 -2 -1 5 -7c0,-1 1,-1 2,-1 0,-1 1,0 2,0 1,1 1,2 1,2 1,1 0,2 0,3l-5 6 -2 -1zm12 3l0 0c-1,1 -1,2 -2,2 -1,0 -2,0 -3,-1 -1,0 -1,-1 -1,-1 -1,-1 -1,-2 0,-3l2 -4c0,-1 1,-1 1,-2 1,0 1,0 2,0l-1 -2 2 1 0 1c1,1 2,1 2,2 0,1 0,2 0,3l-2 4zm-3 -1l0 0 3 -5c0,0 0,0 0,0 0,-1 0,-1 -1,-1 0,0 0,0 0,0 0,0 0,0 -1,1l-2 4c0,1 0,1 0,1 0,0 0,1 0,1 0,0 1,0 1,0 0,0 0,-1 0,-1z"/>
  <path class="fil1" d="M56 58c3,0 5,-3 5,-6 0,-3 -2,-5 -5,-5 -3,0 -6,2 -6,5 0,3 3,6 6,6z"/>
  <path class="fil1" d="M50 35c3,0 5,2 5,5 0,3 -2,5 -5,5 -3,0 -5,-2 -5,-5 0,-3 2,-5 5,-5z"/>
  <path class="fil1" d="M39 40c2,0 5,2 5,5 0,3 -3,5 -5,5 -3,0 -5,-2 -5,-5 0,-3 2,-5 5,-5z"/>
  <path class="fil1" d="M37 53c3,0 5,3 5,6 0,2 -2,5 -5,5 -2,0 -5,-3 -5,-5 0,-3 3,-6 5,-6z"/>
  <path class="fil1" d="M46 64c3,0 5,2 5,5 0,3 -2,5 -5,5 -3,0 -5,-2 -5,-5 0,-3 2,-5 5,-5z"/>
  <path class="fil1" d="M59 67c3,0 5,2 5,5 0,2 -2,4 -5,4 -2,0 -5,-2 -5,-4 0,-3 3,-5 5,-5z"/>
  <path class="fil1" d="M70 59c2,0 4,2 4,4 0,3 -2,5 -4,5 -3,0 -5,-2 -5,-5 0,-2 2,-4 5,-4z"/>
  <path class="fil1" d="M72 45c3,0 5,2 5,5 0,2 -2,4 -5,4 -2,0 -4,-2 -4,-4 0,-3 2,-5 4,-5z"/>
  <path class="fil1" d="M68 32c3,0 5,2 5,4 0,3 -2,4 -5,4 -2,0 -4,-1 -4,-4 0,-2 2,-4 4,-4z"/>
  <path class="fil1" d="M59 22c2,0 4,2 4,4 0,2 -2,4 -4,4 -2,0 -4,-2 -4,-4 0,-2 2,-4 4,-4z"/>
  <path class="fil1" d="M46 19c2,0 4,1 4,3 0,3 -2,4 -4,4 -2,0 -4,-1 -4,-4 0,-2 2,-3 4,-3z"/>
  <path class="fil1" d="M34 24c2,0 3,1 3,3 0,2 -1,4 -3,4 -2,0 -4,-2 -4,-4 0,-2 2,-3 4,-3z"/>
  <path class="fil1" d="M25 35c2,0 4,1 4,3 0,2 -2,4 -4,4 -2,0 -3,-2 -3,-4 0,-2 1,-3 3,-3z"/>
  <path class="fil1" d="M22 48c2,0 3,2 3,4 0,2 -1,3 -3,3 -2,0 -3,-1 -3,-3 0,-2 1,-4 3,-4z"/>
  <path class="fil1" d="M24 62c2,0 3,2 3,4 0,2 -1,3 -3,3 -1,0 -3,-1 -3,-3 0,-2 2,-4 3,-4z"/>
  <path class="fil1" d="M32 74c1,0 3,2 3,4 0,1 -2,3 -3,3 -2,0 -3,-2 -3,-3 0,-2 1,-4 3,-4z"/>
  <path class="fil1" d="M43 82c2,0 3,1 3,3 0,1 -1,3 -3,3 -1,0 -2,-2 -2,-3 0,-2 1,-3 2,-3z"/>
  <path class="fil1" d="M57 83c1,0 3,2 3,3 0,2 -2,3 -3,3 -2,0 -3,-1 -3,-3 0,-1 1,-3 3,-3z"/>
  <path class="fil1" d="M70 80c1,0 2,1 2,2 0,2 -1,3 -2,3 -2,0 -3,-1 -3,-3 0,-1 1,-2 3,-2z"/>
  <path class="fil1" d="M80 71c2,0 3,1 3,2 0,2 -1,3 -3,3 -1,0 -2,-1 -2,-3 0,-1 1,-2 2,-2z"/>
  <path class="fil1" d="M87 58c1,0 2,1 2,3 0,1 -1,2 -2,2 -2,0 -3,-1 -3,-2 0,-2 1,-3 3,-3z"/>
  <path class="fil1" d="M89 49c1,0 2,-1 2,-2 0,-1 -1,-2 -2,-2 -1,0 -2,1 -2,2 0,1 1,2 2,2z"/>
  <path class="fil1" d="M55 111c2,0 4,-2 4,-5 0,-2 -2,-4 -4,-4 -3,0 -5,2 -5,4 0,3 2,5 5,5z"/>
  <path class="fil0" d="M148 45c-1,1 -2,1 -3,1 -1,0 -2,0 -3,-1 4,-1 7,-4 7,-8 0,-5 -4,-9 -10,-9 -5,0 -9,4 -9,9 0,4 3,8 8,9 2,2 4,3 7,3 2,0 3,0 5,-2l-2 -2zm-14 -8c0,-4 2,-6 5,-6 3,0 6,2 6,6 0,3 -3,5 -6,5 -3,0 -5,-2 -5,-5zm25 9c5,0 8,-3 8,-8l0 -10 -4 0 0 10c0,3 -1,4 -4,4 -2,0 -3,-1 -3,-4l0 -10 -4 0 0 10c0,5 2,8 7,8zm25 -1l4 0 -8 -17 -4 0 -8 17 5 0 1 -3 8 0 2 3zm-9 -6l3 -7 3 7 -6 0zm15 6l12 0 0 -3 -8 0 0 -14 -4 0 0 17zm15 0l4 0 0 -17 -4 0 0 17zm11 0l4 0 0 -14 6 0 0 -3 -15 0 0 3 5 0 0 14zm27 -17l-4 0 -5 8 -5 -8 -4 0 7 11 0 6 4 0 0 -6 7 -11zm14 18c5,0 7,-3 7,-6 0,-6 -10,-4 -10,-7 0,-1 1,-2 3,-2 2,0 4,0 5,1l1 -3c-1,-1 -3,-1 -6,-1 -4,0 -7,2 -7,5 0,7 10,4 10,8 0,1 -1,1 -3,1 -2,0 -4,0 -6,-1l-1 3c1,1 4,2 7,2zm23 -1l4 0 -8 -17 -4 0 -7 17 4 0 1 -3 8 0 2 3zm-8 -6l2 -7 3 7 -5 0zm26 -11l0 11 -9 -11 -3 0 0 17 4 0 0 -10 8 10 4 0 0 -17 -4 0zm8 17l8 0c5,0 9,-3 9,-8 0,-6 -4,-9 -9,-9l-8 0 0 17zm4 -3l0 -11 3 0c4,0 6,2 6,6 0,3 -2,5 -6,5l-3 0zm-172 20l-7 0 0 17 4 0 0 -4 3 0c5,0 8,-3 8,-7 0,-4 -3,-6 -8,-6zm0 9l-3 0 0 -6 3 0c3,0 4,1 4,3 0,2 -1,3 -4,3zm26 8l-4 -5c2,-1 4,-3 4,-6 0,-4 -3,-6 -8,-6l-7 0 0 17 4 0 0 -4 3 0 0 0 4 4 4 0zm-4 -11c0,2 -2,3 -4,3l-3 0 0 -6 3 0c2,0 4,1 4,3zm15 12c6,0 10,-4 10,-9 0,-5 -4,-9 -10,-9 -5,0 -9,4 -9,9 0,5 4,9 9,9zm0 -4c-3,0 -5,-2 -5,-5 0,-4 2,-6 5,-6 3,0 6,2 6,6 0,3 -3,5 -6,5zm21 4c3,0 5,-1 7,-3l-3 -3c-1,2 -2,2 -4,2 -3,0 -5,-2 -5,-5 0,-4 2,-6 5,-6 2,0 3,1 4,2l3 -2c-2,-2 -4,-3 -7,-3 -5,0 -9,4 -9,9 0,5 4,9 9,9zm14 -4l0 -4 8 0 0 -3 -8 0 0 -4 9 0 0 -3 -13 0 0 17 13 0 0 -3 -9 0zm18 4c5,0 7,-3 7,-6 0,-6 -10,-4 -10,-7 0,-1 1,-2 4,-2 1,0 3,0 4,1l2 -3c-2,-1 -4,-1 -6,-1 -5,0 -8,2 -8,5 0,7 10,4 10,8 0,1 -1,1 -3,1 -2,0 -4,0 -6,-1l-1 3c1,1 4,2 7,2zm16 0c5,0 7,-3 7,-6 0,-6 -10,-4 -10,-7 0,-1 1,-2 3,-2 2,0 3,0 5,1l1 -3c-1,-1 -4,-1 -6,-1 -5,0 -7,2 -7,5 0,7 10,4 10,8 0,1 -1,1 -3,1 -2,0 -5,0 -6,-1l-1 3c1,1 4,2 7,2zm10 -1l4 0 0 -17 -4 0 0 17zm20 -17l0 11 -9 -11 -3 0 0 17 4 0 0 -10 8 10 4 0 0 -17 -4 0zm19 13c-1,1 -2,1 -3,1 -3,0 -5,-2 -5,-5 0,-4 2,-6 5,-6 2,0 4,1 5,2l2 -2c-1,-2 -4,-3 -7,-3 -5,0 -9,4 -9,9 0,5 4,9 9,9 3,0 5,-1 7,-3l0 -7 -4 0 0 5z"/>
 </g>
</svg>
