<?xml version="1.0" encoding="UTF-8"?>
<!DOCTYPE svg PUBLIC "-//W3C//DTD SVG 1.1//EN" "http://www.w3.org/Graphics/SVG/1.1/DTD/svg11.dtd">
<!-- Creator: CorelDRAW X7 -->
<svg xmlns="http://www.w3.org/2000/svg" xml:space="preserve" width="0.612843in" height="0.210008in" version="1.1" style="shape-rendering:geometricPrecision; text-rendering:geometricPrecision; image-rendering:optimizeQuality; fill-rule:evenodd; clip-rule:evenodd"
viewBox="0 0 613 210"
 xmlns:xlink="http://www.w3.org/1999/xlink">
 <defs>
  <style type="text/css">
   <![CDATA[
    .fil1 {fill:#FEFEFE}
    .fil0 {fill:#FEFEFE;fill-rule:nonzero}
   ]]>
  </style>
 </defs>
 <g id="Layer_x0020_1">
  <metadata id="CorelCorpID_0Corel-Layer"/>
  <path class="fil0" d="M155 201l-5 2c-2,2 -4,2 -5,2 -1,-1 -2,-2 -3,-4l-5 -8c0,-1 0,-2 0,-3 0,-1 0,-1 0,-2 0,-1 1,-1 1,-2 1,0 2,-1 3,-2l1 0 4 -2 9 19zm-6 -1l0 0 0 0 -6 -13 0 1c-1,0 -2,0 -2,1 0,0 0,1 1,1l4 9c0,1 1,1 1,1 0,1 1,0 2,0zm7 -25l0 0 12 17 -9 6 -2 -3 5 -4 -3 -3 -4 3 -2 -3 4 -3 -3 -4 -5 3 -2 -3 9 -6zm6 -6l0 0 12 12 2 -2 2 3 -7 7 -3 -3 2 -2 -11 -12 3 -3zm6 -7l0 0 15 14 -3 3 -15 -14 3 -3zm11 -17l0 0 17 12 -4 6 -6 -3c0,0 -1,-1 -2,-1 -1,-1 -2,-1 -2,-2 0,1 1,2 2,2 1,1 1,1 2,2l5 4 -4 7 -17 -12 2 -4 7 4c1,1 2,2 3,3 2,1 3,2 5,3 -2,-1 -3,-2 -4,-3 -1,-1 -1,-1 -1,-2l-8 -7 1 -3 10 5c1,0 2,1 3,1 1,1 2,1 3,2 -1,-1 -2,-2 -4,-3 -1,-1 -3,-2 -4,-3l-6 -4 2 -4zm2 -7l0 0 19 8 -1 4 -19 -7 1 -5zm4 -11l0 0 19 6 -1 5 -16 -5 -1 5 -4 -1 3 -10zm2 -19l0 0 20 2 -1 11 -3 -1 0 -6 -4 0 0 5 -4 0 0 -5 -5 -1 0 7 -4 -1 1 -11zm-1 -9l0 0 17 -1 0 -3 4 0 0 11 -4 0 0 -3 -16 1 -1 -5zm6 -12l0 0 0 2 6 -2c1,0 1,0 2,0 0,0 1,-1 2,-1 -1,0 -1,0 -2,0 -1,0 -1,0 -2,0l-6 1zm-9 -4l0 0 21 -1 2 6 -19 9 -2 -5 4 -1 -1 -4 -3 1 -2 -5zm-3 -9l0 0 18 -11 2 5 -8 4c0,0 -1,1 -2,1 -1,1 -2,1 -4,2 2,0 4,-1 6,-2 0,0 1,0 1,0l8 -2 2 4 -21 5 -2 -6zm-3 -8l0 0 18 -10 2 5 -18 9 -2 -4zm-8 -12l0 0 16 -12 4 5c1,2 2,3 2,4 0,1 -1,2 -2,3l0 0 -1 1c-1,1 -2,1 -3,1 0,0 -1,0 -2,-1 0,1 0,2 0,3 0,0 -1,1 -2,2l-3 3c-1,0 -1,0 -1,0 -1,1 -1,1 -1,1l-3 -4c0,0 1,0 1,0 0,-1 0,-1 1,-1l3 -3c1,0 2,-1 2,-2 0,0 -1,-1 -1,-2l-7 6 -3 -4zm12 -4l0 0c1,1 2,2 2,2 0,0 1,0 1,0l1 -1c1,0 1,-1 1,-1 0,-1 0,-1 -1,-2l0 0 -4 2zm-10 -11l0 0 0 0c0,0 1,0 1,0 0,1 1,1 1,1 1,0 1,0 2,-1l0 -1c1,0 1,-1 1,-1 0,-1 0,-1 -1,-2l0 0 -4 4zm-11 4l0 0 14 -14 5 5c1,1 2,2 2,4 0,1 -1,2 -2,4l-1 1c-2,1 -3,2 -4,2 -1,0 -3,-1 -4,-2l-1 -2 -6 6 -3 -4zm-11 -8l0 0 1 -1c-1,0 -1,0 -2,0 -1,0 -1,0 -2,0 -1,-1 -2,-2 -2,-4 0,-1 1,-2 2,-4l4 -7c1,-2 3,-3 4,-4 2,0 3,0 5,1 2,2 3,3 3,4 0,2 0,3 -1,5l-1 1 -4 -3 1 -1c0,-1 1,-1 1,-1 0,-1 -1,-1 -1,-1 -1,-1 -1,-1 -1,-1 -1,1 -1,1 -1,1l-6 9c0,1 0,1 0,1 0,1 0,1 1,2 0,0 0,0 1,0 0,0 0,-1 1,-1l1 -2 -1 -1 2 -3 5 3 -6 10 -4 -3zm-21 -10l0 0 8 -20 5 2 -1 9c0,1 0,2 0,3 -1,1 -1,2 -1,3 0,-1 1,-2 1,-3 0,-1 1,-2 1,-3l3 -7 4 1 -7 20 -5 -2 1 -9c0,-1 0,-2 0,-3 0,-1 0,-2 1,-4 -1,2 -1,3 -2,5 0,1 0,2 -1,3l-2 7 -5 -2zm-6 -2l0 0 4 -20 5 1 -5 20 -4 -1zm-13 -9l0 0 4 1 0 1c0,1 0,1 0,2 1,0 1,1 1,1 1,0 1,0 2,-1 0,0 0,0 0,-1 0,0 0,-1 0,-1 0,-1 -1,-1 -1,-2 0,0 -1,0 -1,-1 -1,-1 -2,-2 -3,-3 0,0 -1,-1 -1,-2 0,-1 0,-2 0,-2 0,-2 1,-4 2,-4 1,-1 3,-1 5,-1 2,0 3,1 4,2 1,1 1,2 1,4l0 2 -5 -1 0 -1c0,-1 0,-2 0,-2 0,0 0,0 -1,-1 0,0 -1,0 -1,1 0,0 0,0 0,1 0,1 0,2 2,4l0 0 1 0c1,2 2,3 2,4 1,1 1,1 1,2 0,0 0,1 0,1 -1,2 -1,3 -2,4 -2,1 -3,2 -5,1 -2,0 -4,-1 -4,-2 -1,-1 -2,-3 -1,-4l0 -2zm-15 0l0 0 4 0 0 2c0,1 1,1 1,1 0,1 0,1 1,1 0,0 1,0 1,-1 0,0 0,0 0,-1 0,0 0,-1 0,-1 0,-1 -1,-1 -1,-1 0,-1 -1,-1 -1,-1 -2,-1 -3,-2 -3,-3 -1,0 -1,-1 -2,-2 0,-1 0,-1 0,-2 0,-2 0,-3 1,-4 1,-1 3,-2 5,-2 2,0 3,0 4,1 1,1 1,2 1,4l1 2 -5 0 0 -1c0,-1 0,-2 0,-2 -1,0 -1,0 -1,0 -1,0 -1,0 -1,0 -1,0 -1,1 -1,1 0,1 1,2 3,4l1 0 0 0c2,2 3,3 3,4 0,0 1,1 1,1 0,1 0,1 0,2 0,2 0,3 -2,4 -1,1 -2,2 -4,2 -2,0 -4,-1 -5,-2 -1,-1 -1,-2 -1,-4l0 -2zm-11 10l0 0 -4 -21 10 -2 1 4 -6 1 1 4 5 0 1 3 -5 1 0 5 6 -1 1 4 -10 2zm-5 -5l0 0c1,2 1,3 1,5 -1,1 -2,2 -4,3 -2,1 -4,1 -5,0 -1,0 -2,-2 -3,-4l-3 -8c-1,-2 -1,-4 0,-5 0,-1 1,-2 3,-3 2,-1 4,-1 5,0 1,0 2,1 3,4l1 1 -5 2 0 -2c-1,-1 -1,-1 -1,-2 -1,0 -1,0 -2,0 0,0 0,1 0,1 0,0 0,1 0,2l4 9c0,1 0,1 0,1 1,1 1,1 2,0 0,0 0,0 0,0 0,-1 0,-1 0,-2l-1 -3 4 -1 1 2zm-28 4l0 0c-1,-2 -2,-3 -1,-5 0,-1 1,-3 3,-4 1,-1 3,-1 4,-1 2,1 3,2 4,4l4 7c1,2 2,4 1,5 0,2 -1,3 -3,4 -2,1 -3,2 -5,1 -1,0 -2,-1 -3,-3l-4 -8zm3 -3l0 0 5 9c1,1 1,1 1,1 1,0 1,0 1,0 1,0 1,-1 1,-1 0,0 0,-1 0,-1l-5 -9c-1,-1 -1,-1 -1,-2 -1,0 -1,0 -1,1 -1,0 -1,0 -1,1 0,0 0,0 0,1zm-7 25l0 0 -13 -16 5 -4c1,-1 2,-2 3,-2 2,0 3,0 4,2l0 0 0 1c1,1 2,1 2,2 0,1 0,2 -1,2 1,0 2,0 2,0 1,0 2,1 3,2l3 3c0,1 0,1 1,1 0,1 0,1 0,1l-3 3c0,0 -1,0 -1,0 0,-1 0,-1 -1,-2l-2 -3c-1,0 -2,-1 -2,-1 -1,0 -1,0 -2,1l6 7 -4 3zm-4 -12l0 0c0,-1 1,-2 1,-2 0,-1 0,-1 -1,-2l0 -1c-1,0 -1,0 -2,0 0,0 -1,0 -1,1l0 0 3 4zm-11 11l0 0c0,0 0,0 0,0 0,0 0,0 1,0 0,-1 0,-1 0,-2 0,0 0,-1 0,-1l-1 -1c-1,-1 -1,-1 -2,-1 0,0 -1,1 -1,1l-1 1 4 3zm6 12l0 0 -15 -14 4 -5c1,-2 2,-2 4,-3 1,0 2,1 3,2l2 1c1,1 2,3 2,4 0,1 0,2 -1,4l-2 2 6 5 -3 4zm-28 9l0 0 2 -6c1,-2 2,-3 4,-4 1,0 2,0 4,1l8 4c1,1 2,2 3,2 0,1 0,1 0,2 1,1 1,1 0,2 0,1 0,2 -1,4l0 0 -2 4 -18 -9zm5 -4l0 0 0 1 12 6 0 0c0,-1 1,-2 0,-2 0,0 0,-1 -1,-1l-8 -5c-1,0 -1,0 -2,0 0,0 -1,1 -1,1zm8 29l0 0 -19 -6 1 -5 9 0c1,0 1,0 2,0 1,0 3,0 4,0 -1,0 -2,-1 -3,-1 -1,0 -3,0 -4,-1l-7 -2 1 -4 20 5 -2 5 -9 1c-1,0 -2,0 -3,-1 -1,0 -2,0 -3,0 2,1 3,1 4,1 2,1 3,1 4,1l6 2 -1 5zm-8 8l0 0 0 -2 -6 0c-1,0 -1,0 -2,0 0,0 -1,0 -2,-1 1,1 1,1 2,1 0,0 1,0 2,0l6 2zm6 7l0 0 -19 -7 0 -6 21 -1 -1 5 -3 0 -1 3 4 1 -1 5zm-6 14l0 0 0 -5 1 0c1,0 2,0 2,0 0,-1 0,-1 0,-2 0,0 0,0 0,-1 -1,0 -1,0 -1,0 -1,0 -1,0 -2,0 0,1 -1,1 -1,2 0,0 0,0 -1,1 -1,2 -1,3 -2,3 -1,1 -1,1 -2,2 0,0 -1,0 -2,0 -2,1 -3,0 -4,-1 -1,-1 -2,-2 -2,-4 0,-2 0,-4 1,-5 1,-1 2,-2 4,-2l2 0 0 5 -2 0c0,0 -1,0 -1,0 0,0 0,1 0,1 0,1 0,1 0,1 0,1 1,1 1,1 1,0 2,-1 4,-4l0 0 0 0c1,-2 2,-3 3,-4 0,0 1,0 1,0 1,-1 1,-1 2,-1 2,0 3,1 4,2 1,1 2,2 2,4 0,2 0,4 -1,5 -1,1 -3,2 -4,2l-2 0zm10 14l0 0 -7 3 -11 7 -1 -5 3 -2c1,0 1,0 2,0 0,-1 1,-1 1,-1 -1,0 -2,0 -3,0l-4 1 -1 -5 12 0 8 -2 1 4zm4 11l0 0 -15 7 2 3 -4 2 -4 -10 3 -2 2 3 15 -7 1 4zm5 8l0 0 -18 11 -2 -4 17 -11 3 4zm6 10l0 0 -17 12 -2 -4 13 -10 -3 -4 3 -3 6 9zm1 12l0 0 -2 -2 -4 5c0,1 0,1 -1,1 0,1 0,1 -1,2 0,0 1,-1 1,-1 1,-1 1,-1 2,-1l5 -4zm9 -1l0 0 -17 12 -5 -5 13 -17 3 3 -2 3 2 3 3 -3 3 4zm-5 22l0 0 9 -13c0,0 0,-1 0,-1 0,0 0,-1 0,-1 -1,0 -1,0 -1,0 -1,0 -1,0 -1,1l-9 13 -4 -3 9 -12c1,-2 2,-3 3,-3 2,-1 3,0 5,1 2,1 3,2 3,4 0,1 -1,3 -2,5l-8 12 -4 -3zm22 6l0 0c-1,2 -2,3 -4,4 -1,0 -3,0 -5,-1 -1,-1 -2,-2 -3,-4 0,-1 0,-3 1,-5l4 -8c0,-1 1,-2 2,-2 1,-1 2,-1 3,-1l-1 -4 4 1 0 4c2,0 3,2 3,3 1,2 1,3 0,5l-4 8zm-5 -2l0 0 5 -9c0,0 0,-1 0,-1 0,-1 0,-1 -1,-1 0,0 0,0 -1,0 0,0 0,0 -1,1l-4 9c-1,1 -1,1 -1,2 0,0 1,0 1,0 1,1 1,1 1,0 1,0 1,0 1,-1z"/>
  <path class="fil1" d="M106 109c5,0 10,-4 10,-10 0,-6 -5,-10 -10,-10 -6,0 -11,4 -11,10 0,6 5,10 11,10z"/>
  <path class="fil1" d="M94 66c6,0 10,4 10,10 0,5 -4,10 -10,10 -5,0 -9,-5 -9,-10 0,-6 4,-10 9,-10z"/>
  <path class="fil1" d="M73 76c5,0 10,4 10,10 0,5 -5,9 -10,9 -5,0 -9,-4 -9,-9 0,-6 4,-10 9,-10z"/>
  <path class="fil1" d="M70 101c6,0 10,5 10,10 0,5 -4,9 -10,9 -5,0 -9,-4 -9,-9 0,-5 4,-10 9,-10z"/>
  <path class="fil1" d="M87 122c5,0 9,4 9,9 0,5 -4,9 -9,9 -5,0 -9,-4 -9,-9 0,-5 4,-9 9,-9z"/>
  <path class="fil1" d="M112 127c5,0 9,4 9,9 0,5 -4,9 -9,9 -5,0 -9,-4 -9,-9 0,-5 4,-9 9,-9z"/>
  <path class="fil1" d="M132 111c5,0 8,4 8,9 0,5 -3,9 -8,9 -5,0 -8,-4 -8,-9 0,-5 3,-9 8,-9z"/>
  <path class="fil1" d="M137 86c5,0 8,4 8,8 0,5 -3,9 -8,9 -4,0 -8,-4 -8,-9 0,-4 4,-8 8,-8z"/>
  <path class="fil1" d="M130 61c4,0 8,3 8,8 0,4 -4,8 -8,8 -4,0 -8,-4 -8,-8 0,-5 4,-8 8,-8z"/>
  <path class="fil1" d="M112 42c4,0 8,3 8,7 0,5 -4,8 -8,8 -4,0 -7,-3 -7,-8 0,-4 3,-7 7,-7z"/>
  <path class="fil1" d="M88 35c4,0 7,3 7,8 0,4 -3,7 -7,7 -4,0 -8,-3 -8,-7 0,-5 4,-8 8,-8z"/>
  <path class="fil1" d="M64 45c3,0 7,3 7,7 0,4 -4,7 -7,7 -4,0 -7,-3 -7,-7 0,-4 3,-7 7,-7z"/>
  <path class="fil1" d="M48 66c3,0 6,3 6,6 0,4 -3,7 -6,7 -4,0 -7,-3 -7,-7 0,-3 3,-6 7,-6z"/>
  <path class="fil1" d="M42 92c3,0 6,3 6,6 0,4 -3,7 -6,7 -4,0 -6,-3 -6,-7 0,-3 2,-6 6,-6z"/>
  <path class="fil1" d="M46 118c3,0 6,3 6,7 0,3 -3,6 -6,6 -3,0 -6,-3 -6,-6 0,-4 3,-7 6,-7z"/>
  <path class="fil1" d="M60 141c3,0 6,3 6,6 0,3 -3,6 -6,6 -3,0 -6,-3 -6,-6 0,-3 3,-6 6,-6z"/>
  <path class="fil1" d="M82 155c3,0 6,2 6,5 0,3 -3,6 -6,6 -3,0 -5,-3 -5,-6 0,-3 2,-5 5,-5z"/>
  <path class="fil1" d="M108 158c3,0 5,3 5,6 0,3 -2,5 -5,5 -3,0 -5,-2 -5,-5 0,-3 2,-6 5,-6z"/>
  <path class="fil1" d="M133 151c2,0 4,2 4,5 0,3 -2,5 -4,5 -3,0 -5,-2 -5,-5 0,-3 2,-5 5,-5z"/>
  <path class="fil1" d="M152 134c3,0 5,2 5,5 0,2 -2,5 -5,5 -3,0 -5,-3 -5,-5 0,-3 2,-5 5,-5z"/>
  <path class="fil1" d="M164 111c3,0 4,2 4,4 0,3 -1,5 -4,5 -2,0 -4,-2 -4,-5 0,-2 2,-4 4,-4z"/>
  <path class="fil1" d="M168 93c2,0 4,-2 4,-4 0,-3 -2,-5 -4,-5 -2,0 -4,2 -4,5 0,2 2,4 4,4z"/>
  <path class="fil1" d="M104 210c5,0 8,-4 8,-9 0,-4 -3,-8 -8,-8 -5,0 -8,4 -8,8 0,5 3,9 8,9z"/>
  <path class="fil0" d="M280 85c-1,2 -3,3 -5,3 -2,0 -3,-1 -5,-2 7,-3 12,-9 12,-16 0,-10 -8,-17 -18,-17 -10,0 -18,7 -18,17 0,8 6,15 15,16 5,6 9,7 14,7 3,0 6,-1 9,-4l-4 -4zm-26 -15c0,-7 4,-11 10,-11 6,0 10,4 10,11 0,6 -4,10 -10,10 -6,0 -10,-4 -10,-10zm48 16c9,0 15,-5 15,-14l0 -19 -8 0 0 18c0,6 -2,9 -7,9 -4,0 -7,-3 -7,-9l0 -18 -8 0 0 19c0,9 6,14 15,14zm46 0l8 0 -14 -33 -8 0 -15 33 8 0 3 -7 15 0 3 7zm-15 -13l5 -12 5 12 -10 0zm27 13l24 0 0 -6 -17 0 0 -27 -7 0 0 33zm28 0l7 0 0 -33 -7 0 0 33zm22 0l8 0 0 -27 10 0 0 -6 -29 0 0 6 11 0 0 27zm50 -33l-8 0 -8 15 -9 -15 -8 0 13 21 0 12 7 0 0 -12 13 -21zm27 33c9,0 14,-4 14,-10 0,-12 -19,-8 -19,-14 0,-2 2,-3 6,-3 3,0 6,1 9,2l3 -5c-3,-2 -8,-3 -12,-3 -9,0 -14,4 -14,10 0,12 19,8 19,14 0,2 -1,3 -6,3 -4,0 -8,-1 -11,-3l-2 6c3,2 8,3 13,3zm44 0l8 0 -15 -33 -7 0 -15 33 8 0 3 -7 15 0 3 7zm-16 -13l5 -12 5 12 -10 0zm50 -20l0 20 -17 -20 -6 0 0 33 8 0 0 -20 16 20 6 0 0 -33 -7 0zm15 33l15 0c10,0 18,-7 18,-16 0,-10 -8,-17 -18,-17l-15 0 0 33zm7 -6l0 -21 7 0c7,0 11,4 11,11 0,6 -4,10 -11,10l-7 0zm-325 38l-14 0 0 32 8 0 0 -9 6 0c9,0 14,-4 14,-11 0,-8 -5,-12 -14,-12zm0 17l-6 0 0 -11 6 0c4,0 7,2 7,6 0,3 -3,5 -7,5zm49 15l-7 -10c4,-2 6,-6 6,-10 0,-8 -5,-12 -14,-12l-14 0 0 32 7 0 0 -9 7 0 0 0 7 9 8 0zm-8 -20c0,3 -3,5 -7,5l-7 0 0 -11 7 0c4,0 7,2 7,6zm29 21c10,0 18,-7 18,-17 0,-10 -8,-17 -18,-17 -10,0 -18,7 -18,17 0,10 8,17 18,17zm0 -6c-6,0 -10,-5 -10,-11 0,-6 4,-10 10,-10 6,0 10,4 10,10 0,6 -4,11 -10,11zm39 6c6,0 11,-2 14,-6l-5 -4c-2,2 -5,4 -8,4 -6,0 -11,-5 -11,-11 0,-6 5,-10 11,-10 3,0 6,1 8,3l5 -4c-3,-4 -8,-6 -14,-6 -10,0 -17,7 -17,17 0,10 7,17 17,17zm27 -7l0 -7 15 0 0 -6 -15 0 0 -7 17 0 0 -6 -25 0 0 32 25 0 0 -6 -17 0zm34 7c10,0 14,-5 14,-10 0,-12 -19,-8 -19,-14 0,-2 2,-4 6,-4 3,0 6,1 9,3l3 -6c-3,-2 -8,-3 -12,-3 -9,0 -13,5 -13,10 0,13 19,8 19,14 0,2 -2,4 -7,4 -4,0 -8,-1 -11,-3l-2 5c3,2 8,4 13,4zm30 0c9,0 14,-5 14,-10 0,-12 -19,-8 -19,-14 0,-2 2,-4 6,-4 3,0 6,1 9,3l3 -6c-4,-2 -8,-3 -12,-3 -9,0 -14,5 -14,10 0,13 19,8 19,14 0,2 -1,4 -6,4 -4,0 -8,-1 -11,-3l-2 5c3,2 8,4 13,4zm19 -1l8 0 0 -32 -8 0 0 32zm38 -32l0 20 -16 -20 -7 0 0 32 8 0 0 -19 16 19 7 0 0 -32 -8 0zm37 25c-2,1 -3,2 -5,2 -7,0 -11,-5 -11,-11 0,-6 4,-10 11,-10 3,0 6,1 8,3l5 -4c-3,-4 -8,-6 -14,-6 -10,0 -18,7 -18,17 0,10 8,17 18,17 5,0 10,-1 13,-4l0 -13 -7 0 0 9z"/>
 </g>
</svg>
